<svg xmlns="http://www.w3.org/2000/svg" viewBox="0 0 50.5 99.35"><defs><style>.cls-1,.cls-2{fill:none;stroke:#8686fa;}.cls-1{stroke-linecap:round;stroke-linejoin:round;stroke-width:5px;}.cls-2{stroke-miterlimit:10;}</style></defs><title>Asset 2</title><g id="Layer_2" data-name="Layer 2"><g id="Layer_1-2" data-name="Layer 1"><path class="cls-1" d="M19.1,61.57c0,9.36-16.6,7.75-16.6,19.69"/><path class="cls-1" d="M19.1,22.19c0,9.36-16.6,7.75-16.6,19.69"/><path class="cls-1" d="M19.1,61.57c0-9.36-16.6-7.75-16.6-19.69"/><path class="cls-1" d="M2.5,2.5"/><path class="cls-1" d="M19.1,22.19c0-9.36-16.6-7.75-16.6-19.69"/><path class="cls-2" d="M50,79.66C50,89,33.4,87.41,33.4,99.35"/><path class="cls-2" d="M50,40.29C50,49.65,33.4,48,33.4,60"/><path class="cls-2" d="M50,79.66C50,70.3,33.4,71.92,33.4,60"/><path class="cls-2" d="M33.4,20.6"/><path class="cls-2" d="M50,40.29c0-9.36-16.6-7.75-16.6-19.69"/></g></g></svg>